<svg xmlns="http://www.w3.org/2000/svg" width="21.926" height="21.924" viewBox="0 0 21.926 21.924">
  <g id="siguiendo" transform="translate(0 -0.024)">
    <ellipse id="Elipse_3" data-name="Elipse 3" cx="5.161" cy="5.592" rx="5.161" ry="5.592" transform="translate(2.961 0.024)" fill="#3b383b"/>
    <path id="Trazado_8" data-name="Trazado 8" d="M8.222,298.69A8.232,8.232,0,0,0,0,306.912a.913.913,0,0,0,.913.913H15.529a.913.913,0,0,0,.913-.913A8.232,8.232,0,0,0,8.222,298.69Z" transform="translate(0 -285.877)" fill="#3b383b"/>
    <path id="Trazado_9" data-name="Trazado 9" d="M346.768,168.024a1.925,1.925,0,0,0-1.827,2.01,1.835,1.835,0,1,0-3.654,0c0,1.58,2.061,3.432,3.088,4.256a.906.906,0,0,0,1.133,0c1.027-.822,3.088-2.676,3.088-4.256A1.925,1.925,0,0,0,346.768,168.024Z" transform="translate(-326.671 -160.806)" fill="#3b383b"/>
  </g>
</svg>
