<svg xmlns="http://www.w3.org/2000/svg" width="104.007" height="74" viewBox="0 0 104.007 74">
  <g id="XMLID_184_" transform="translate(0.003 -3.196)">
    <path id="Trazado_10" data-name="Trazado 10" d="M102,15.2a12.477,12.477,0,0,0-9-9c-8.111-2.185-41-3-41-3s-32.885.815-41,3a12.477,12.477,0,0,0-9,9c-2.176,8.167-2,25-2,25s-.176,16.833,2,25a12.477,12.477,0,0,0,9,9c8.111,2.185,41,3,41,3s32.885-.815,41-3a12.484,12.484,0,0,0,9-9c2.172-8.167,2-25,2-25S104.176,23.363,102,15.2Zm-61,40v-30l28,15Z" transform="translate(0 0)" fill="#f0555c"/>
  </g>
</svg>
